<?xml version="1.0" encoding="utf-8"?>
<svg version="1.1" id="Layer_1" xmlns="http://www.w3.org/2000/svg" xmlns:xlink="http://www.w3.org/1999/xlink" x="0px" y="0px" width="160px" height="40px"
	 viewBox="0 0 160 40" enable-background="new 0 0 160 40" xml:space="preserve">
	<g>
		<g>
			<polygon fill="#FFFFFF" points="41.88,4.23 55.427,11.766 55.427,28.991 41.88,36.525 27.712,27.915 27.712,11.766 			"/>
			<g>
				<path fill="#FFFFFF" d="M10.532,19.61c2.548,0,4.009-1.374,4.009-3.397v-0.068c0-2.264-1.563-3.432-4.111-3.432H5.232v6.898
					H10.532z M0,7.944h10.872c3.024,0,5.368,0.858,6.93,2.437c1.325,1.337,2.039,3.224,2.039,5.489v0.069
					c0,3.876-2.073,6.312-5.096,7.444l5.809,8.578h-6.115l-5.096-7.686H5.232v7.686H0V7.944z"/>
				<path fill="#FFFFFF" d="M76.653,22.046h-6.048v5.283h6.217c2.311,0,3.704-0.822,3.704-2.605v-0.069
					C80.525,23.042,79.336,22.046,76.653,22.046 M79.201,15.047c0-1.579-1.224-2.47-3.432-2.47h-5.164v5.078h4.825
					c2.31,0,3.771-0.754,3.771-2.54V15.047z M65.509,7.944H76.55c2.718,0,4.859,0.755,6.218,2.127
					c1.087,1.098,1.63,2.436,1.63,4.082v0.069c0,2.711-1.426,4.221-3.125,5.182c2.753,1.062,4.451,2.677,4.451,5.901v0.068
					c0,4.392-3.534,6.588-8.902,6.588H65.509V7.944z"/>
			</g>
			<polygon fill="#FFFFFF" points="90.211,7.944 95.443,7.944 95.443,27.158 107.3,27.158 107.3,31.962 90.211,31.962 			"/>
			<g>
				<path fill="#FFFFFF" d="M128.809,20.021v-0.067c0-4.118-2.99-7.55-7.203-7.55c-4.212,0-7.134,3.363-7.134,7.481v0.069
					c0,4.117,2.988,7.547,7.202,7.547C125.887,27.501,128.809,24.138,128.809,20.021 M109.001,20.021v-0.067
					c0-6.829,5.334-12.42,12.673-12.42s12.604,5.522,12.604,12.351v0.069c0,6.827-5.334,12.42-12.673,12.42
					C114.268,32.374,109.001,26.85,109.001,20.021"/>
				<path fill="#FFFFFF" d="M138.053,20.021v-0.067c0-6.829,5.096-12.42,12.401-12.42c4.483,0,7.168,1.508,9.376,3.705l-3.329,3.877
					c-1.835-1.682-3.703-2.711-6.081-2.711c-4.009,0-6.897,3.363-6.897,7.481v0.069c0,4.117,2.819,7.547,6.897,7.547
					c2.717,0,4.382-1.098,6.25-2.813l3.33,3.397c-2.446,2.642-5.164,4.289-9.75,4.289C143.251,32.374,138.053,26.919,138.053,20.021
					"/>
			</g>
			<path fill="#749FBE" d="M35.037,16.01l3.422-1.993l3.421-1.994l3.422,1.994l3.421,1.993L41.88,20L35.037,16.01z M41.88,6.511
				l5.784,3.371l5.784,3.374l4.725-2.755l-8.146-4.75L41.88,1l-8.146,4.75l-8.147,4.75l4.725,2.755l5.784-3.374L41.88,6.511z"/>
			<polygon fill="#F15E2B" points="53.448,13.257 53.448,17.939 41.879,24.685 41.879,27.979 48.722,23.989 53.448,26.746
				41.879,33.489 41.879,39 58.173,29.501 58.173,10.5 			"/>
			<path fill="#2F5D7B" d="M35.037,20v3.989l3.414,1.99l0.008,0.005l3.421,1.996v-4V20l-6.843-3.989V20z M25.587,20v9.501L29,31.491
				l4.734,2.759L41.88,39v-5.511l-5.784-3.371l-2.371-1.383l-3.413-1.989V20v-6.743L25.587,10.5V20z"/>
		</g>
	</g>
</svg>
